# xmcd
#
# Track frame offsets: 
#        150
#        18483
#        31818
#        47683
#        64300
#        80183
#        103030
#        116698
#        134750
#        148050
#        161238
#        182255
#        197170
#
# Disc length: 2840 seconds
#
# Revision: 9
# Processed by: cddbd v1.5.2PL0 Copyright (c) Steve Scherf et al.
# Submitted via: ExactAudioCopy v0.99pb5
#
DISCID=bf0b160d
DTITLE=Varttina - Vihma
DYEAR=1998
DGENRE=Progressive Folk
TTITLE0=Vihma
TTITLE1=Tielle Heitetty
TTITLE2=Emoton
TTITLE3=Paivan Nousu Nostajani
TTITLE4=Laulutytto
TTITLE5=Uskottu ei Uupuvani
TTITLE6=Maa ei Kerro
TTITLE7=Kylan Kavija
TTITLE8=Mieleni Alenevi
TTITLE9=Neitonen
TTITLE10=Aamu
TTITLE11=Kauan Kulkenut
TTITLE12=Vihmax (Vihma remix)
EXTD=YEAR: 1998
EXTT0=
EXTT1=
EXTT2=
EXTT3=
EXTT4=
EXTT5=
EXTT6=
EXTT7=
EXTT8=
EXTT9=
EXTT10=
EXTT11=
EXTT12=
PLAYORDER=
